HIERARCHY
ROOT root
{
	OFFSET 0.000000 0.000000 0.000000
	CHANNELS 6 Xposition Yposition Zposition Zrotation Yrotation Xrotation
	JOINT lhip
	{
		OFFSET 0.058581 -0.082280 -0.017664
		CHANNELS 3 Zrotation Yrotation Xrotation
		JOINT lknee
		{
			OFFSET 0.043451 -0.386469 0.008037
			CHANNELS 3 Zrotation Yrotation Xrotation
			JOINT lankle
			{
				OFFSET -0.014790 -0.426874 -0.037428
				CHANNELS 3 Zrotation Yrotation Xrotation
				JOINT ltoe
				{
					OFFSET 0.041054 -0.060286 0.122042
					CHANNELS 3 Zrotation Yrotation Xrotation
					End Site
					{
						OFFSET 0.000000 0.000000 0.000000
					}
				}
			}
		}
	}
	JOINT rhip
	{
		OFFSET -0.060310 -0.090513 -0.013543
		CHANNELS 3 Zrotation Yrotation Xrotation
		JOINT rknee
		{
			OFFSET -0.043257 -0.383688 -0.004843
			CHANNELS 3 Zrotation Yrotation Xrotation
			JOINT rankle
			{
				OFFSET 0.019056 -0.420046 -0.034562
				CHANNELS 3 Zrotation Yrotation Xrotation
				JOINT rtoe
				{
					OFFSET -0.034840 -0.062106 0.130323
					CHANNELS 3 Zrotation Yrotation Xrotation
					End Site
					{
						OFFSET 0.000000 0.000000 0.000000
					}
				}
			}
		}
	}
	JOINT lowerback
	{
		OFFSET 0.004439 0.124404 -0.038385
		CHANNELS 3 Zrotation Yrotation Xrotation
		JOINT upperback
		{
			OFFSET 0.004488 0.137956 0.026820
			CHANNELS 3 Zrotation Yrotation Xrotation
			JOINT chest
			{
				OFFSET -0.002265 0.056032 0.002855
				CHANNELS 3 Zrotation Yrotation Xrotation
				JOINT lowerneck
				{
					OFFSET -0.013390 0.211636 -0.033468
					CHANNELS 3 Zrotation Yrotation Xrotation
					JOINT upperneck
					{
						OFFSET 0.010113 0.088937 0.050410
						CHANNELS 3 Zrotation Yrotation Xrotation
						End Site
						{
							OFFSET 0.000000 0.000000 0.000000
						}
					}
				}
				JOINT lclavicle
				{
					OFFSET 0.071702 0.114000 -0.018898
					CHANNELS 3 Zrotation Yrotation Xrotation
					JOINT lshoulder
					{
						OFFSET 0.122921 0.045205 -0.019046
						CHANNELS 3 Zrotation Yrotation Xrotation
						JOINT lelbow
						{
							OFFSET 0.255332 -0.015649 -0.022946
							CHANNELS 3 Zrotation Yrotation Xrotation
							JOINT lwrist
							{
								OFFSET 0.265709 0.012698 -0.007375
								CHANNELS 3 Zrotation Yrotation Xrotation
								End Site
								{
									OFFSET 0.000000 0.000000 0.000000
								}
							}
						}
					}
				}
				JOINT rclavicle
				{
					OFFSET -0.082954 0.112472 -0.023707
					CHANNELS 3 Zrotation Yrotation Xrotation
					JOINT rshoulder
					{
						OFFSET -0.113228 0.046853 -0.008472
						CHANNELS 3 Zrotation Yrotation Xrotation
						JOINT relbow
						{
							OFFSET -0.260127 -0.014369 -0.031269
							CHANNELS 3 Zrotation Yrotation Xrotation
							JOINT rwrist
							{
								OFFSET -0.269108 0.006794 -0.006027
								CHANNELS 3 Zrotation Yrotation Xrotation
								End Site
								{
									OFFSET 0.000000 0.000000 0.000000
								}
							}
						}
					}
				}
			}
		}
	}
}
MOTION
Frames: 16
Frame Time: 0.033333
-0.046299 1.109402 0.993814 0.600127 -0.477964 84.093128 1.291944 1.894669 3.574165 0.909077 -9.516396 7.435749 2.280985 9.742606 -10.513217 0.000000 -0.000000 0.000000 -2.818862 -9.172471 6.252600 -2.750277 -1.687265 1.690261 4.785590 -15.546337 -10.425532 0.000000 -0.000000 0.000000 -3.421772 5.762338 7.709398 -5.918820 0.091605 3.302300 -1.931932 3.288181 1.390277 9.623376 -5.476124 -8.619652 5.078134 1.906498 -5.339310 -22.281945 -10.494948 1.199506 -39.726305 0.877680 12.601918 -12.453177 -26.837425 30.856591 18.314289 -8.095285 3.659641 3.596973 23.859816 -3.777397 1.688640 29.472133 -17.155537 -39.878557 52.819236 -30.268115 -24.731845 9.777865 0.849722 
-0.042347 1.107932 0.993775 0.885687 -0.266179 84.096118 1.190252 1.619201 3.543178 0.944862 -9.652684 7.649499 2.517105 9.700673 -10.599947 0.000000 -0.000000 0.000000 -2.850435 -9.154129 6.362818 -2.748686 -1.923480 1.794844 4.771140 -15.712335 -10.505713 0.000000 -0.000000 0.000000 -3.916139 5.870657 7.226885 -5.313934 -0.150268 3.746303 -1.501594 3.106371 1.538093 9.613786 -5.538702 -8.801742 5.268871 1.333609 -6.070304 -22.395267 -9.716214 1.274853 -40.264814 1.392772 11.729347 -11.889780 -24.696422 29.939160 16.675100 -7.176064 2.892796 4.742128 22.723984 -3.203733 3.928812 28.370917 -14.682829 -43.036196 57.104999 -31.494131 -23.493325 9.942607 -0.063664 
-0.038358 1.106736 0.993586 0.453138 -0.123566 83.951998 1.130871 1.595413 3.776506 0.814007 -9.560434 7.791563 2.645027 9.967961 -10.665488 0.000000 -0.000000 0.000000 -2.963811 -9.105877 6.334914 -2.811184 -1.843214 2.125938 4.768934 -15.651618 -10.598708 0.000000 -0.000000 0.000000 -3.982608 5.915007 7.102967 -5.096778 -0.206200 4.083566 -1.247571 3.329689 1.442117 9.178264 -5.879741 -8.941083 5.548349 1.226927 -6.397148 -22.277216 -9.502023 1.563321 -40.699574 2.297685 10.851425 -11.435565 -23.648418 27.602446 17.278482 -6.520212 1.319387 5.082392 22.594351 -2.752032 5.410127 27.701531 -12.823051 -46.052002 61.241819 -33.085328 -22.815077 10.352730 0.033494 
-0.034393 1.106440 0.993673 -0.222182 0.037527 83.875790 1.092928 1.506391 3.833759 0.651465 -9.098644 8.117295 2.746931 10.189883 -10.758688 0.000000 -0.000000 0.000000 -3.023461 -8.735601 6.177309 -2.815347 -1.879188 2.409132 4.647619 -15.451765 -10.519260 0.000000 -0.000000 0.000000 -3.682756 5.852058 7.082492 -5.128712 -0.122083 4.184002 -1.269029 3.416003 1.431864 9.308670 -5.565910 -9.160446 5.508389 1.170022 -6.751275 -22.071887 -9.267400 1.620354 -41.065244 3.079217 10.116462 -10.753530 -22.665311 26.211826 12.980051 -5.695081 -0.116526 5.128902 23.042423 -2.317316 5.457163 28.300454 -11.930069 -48.348009 64.682848 -33.736689 -21.684552 10.993684 -0.048625 
-0.031004 1.106468 0.994109 -1.026751 0.188347 83.869488 1.071398 1.631379 3.910633 0.571703 -8.634558 8.200557 2.865749 10.472301 -10.774785 0.000000 -0.000000 0.000000 -3.034940 -8.469126 6.029653 -2.880545 -1.602210 2.457162 4.612648 -15.256033 -10.299778 0.000000 -0.000000 0.000000 -3.338574 5.912359 7.118543 -5.313841 0.211614 4.204081 -1.298574 3.658558 1.373577 9.490719 -5.935450 -9.498289 5.673657 1.222974 -6.999097 -21.831605 -9.254156 1.318283 -41.278569 3.570673 9.492350 -10.213431 -21.594480 25.100715 10.493806 -5.109757 -1.007406 4.377904 23.832266 -2.444727 4.696515 29.076353 -11.789562 -50.508107 67.752052 -34.870479 -20.198940 11.397837 0.389706 
-0.027727 1.106765 0.994651 -1.674487 0.328085 84.059770 1.017794 1.700679 3.831516 0.543452 -8.077117 8.105279 2.926516 10.656997 -10.757302 0.000000 -0.000000 0.000000 -3.014836 -8.234621 5.759358 -2.952025 -1.365704 2.343327 4.595755 -15.058030 -10.016864 0.000000 -0.000000 0.000000 -2.916258 5.917396 7.071174 -5.674929 0.597307 4.188232 -1.434770 3.823815 1.162266 9.832641 -6.611492 -9.681456 5.943950 1.339570 -7.357811 -21.569443 -9.378986 1.161705 -41.478004 3.911807 8.919345 -9.494686 -20.688736 23.715454 7.647810 -4.369030 -2.598182 2.873026 24.908897 -2.893995 3.270167 30.278461 -12.469028 -52.252192 69.735960 -35.837557 -18.664805 11.731236 0.171265 
-0.024877 1.106958 0.995101 -2.142870 0.446010 84.156177 0.979746 1.823509 3.994625 0.525529 -7.684383 7.654535 2.947987 10.844500 -10.625446 0.000000 -0.000000 0.000000 -2.999076 -8.168317 5.702145 -3.074555 -1.018879 2.035638 4.604062 -14.939523 -9.662239 0.000000 -0.000000 0.000000 -2.510006 5.949152 7.245001 -6.148958 1.025823 4.008891 -1.555919 3.988233 1.106034 10.281050 -7.711972 -9.824457 6.399161 1.402919 -7.530423 -20.962931 -9.488977 0.859069 -41.954715 4.030439 8.498380 -8.892443 -20.187188 22.207156 5.839476 -3.956021 -4.720811 0.644295 25.972508 -3.906962 1.124706 32.017845 -13.986423 -50.645172 70.345487 -33.779415 -18.530730 12.129159 2.066541 
-0.022503 1.106928 0.995832 -2.715072 0.524636 84.379835 0.953113 1.979207 4.012266 0.432242 -7.255587 7.247993 3.022395 11.050113 -10.391648 0.000000 -0.000000 0.000000 -2.979264 -8.044917 5.466609 -3.183480 -0.586136 1.794995 4.685182 -14.772509 -9.268097 0.000000 -0.000000 0.000000 -2.120828 5.977711 7.390376 -6.768773 1.513953 3.590502 -1.820122 4.272216 1.078692 10.951933 -8.804895 -10.109850 6.852185 1.507507 -7.510409 -19.982187 -9.273147 0.377057 -42.533477 4.000453 8.201288 -8.674423 -20.047376 21.914549 4.929933 -3.769505 -5.931427 -1.926413 26.860947 -5.088250 -1.039358 33.958590 -16.411660 -49.640663 69.315789 -32.615854 -17.684327 13.014233 3.830338 
-0.020398 1.107951 0.996568 -2.900301 0.737676 84.693610 1.069782 2.040867 3.568314 0.331251 -6.997010 7.280316 3.018517 11.115330 -10.295336 0.000000 -0.000000 0.000000 -2.763184 -8.014806 4.990800 -3.274803 -0.335530 1.785844 4.744879 -14.770856 -8.975394 0.000000 -0.000000 0.000000 -1.675037 5.910467 7.706725 -7.343766 1.839458 3.006652 -2.077803 4.467624 1.220330 11.626559 -9.692117 -10.516143 7.369796 1.732861 -7.525338 -19.108474 -9.171956 0.196760 -43.160901 3.900789 8.065087 -8.306920 -20.791366 21.951197 4.811690 -3.984914 -6.935336 -4.740991 27.554677 -6.480734 -3.733887 35.958157 -20.157048 -48.082050 65.715096 -31.344922 -17.153954 13.822532 5.771990 
-0.018652 1.108563 0.997421 -3.012893 0.859537 84.894528 1.031781 2.122638 3.326806 0.361858 -6.913074 7.179211 2.919138 11.332178 -10.196530 0.000000 -0.000000 0.000000 -2.674219 -8.068957 4.639078 -3.322299 -0.075127 1.819986 4.796301 -14.874814 -8.655981 0.000000 -0.000000 0.000000 -1.341343 5.899994 8.182221 -7.944104 2.265272 2.458982 -2.262639 4.532306 1.278445 12.168259 -10.592128 -10.828738 7.697109 2.092055 -7.504276 -18.135495 -8.901895 0.021055 -43.805487 3.774047 8.277766 -8.289266 -22.186518 22.558758 5.575793 -4.076779 -8.312376 -7.716865 27.976587 -7.762534 -7.232882 37.200058 -24.714461 -44.903099 60.276747 -29.673588 -18.843720 13.472685 6.410424 
-0.016855 1.109073 0.998192 -2.829872 1.037097 85.145614 1.029110 2.087507 3.056144 0.396169 -7.030093 6.971179 2.833827 11.572586 -10.104960 0.000000 -0.000000 0.000000 -2.546880 -8.222556 4.276353 -3.351918 0.166921 1.901496 4.966487 -15.144395 -8.327923 0.000000 -0.000000 0.000000 -0.846826 5.803149 8.557080 -8.641026 2.726408 1.883777 -2.551967 4.630111 1.435669 12.652892 -11.598394 -10.992030 8.231291 2.490162 -7.452570 -17.059038 -8.451509 -0.134370 -44.323668 3.348565 8.770846 -8.485354 -23.884075 23.496874 5.723898 -4.181973 -9.880588 -10.858299 27.708719 -9.003552 -10.644423 37.059748 -29.161378 -40.835743 53.631867 -28.698899 -19.380895 12.257954 4.875347 
-0.015294 1.109563 0.999163 -2.183820 1.218087 85.439051 1.041239 1.882603 2.671810 0.412779 -7.495387 6.836011 2.795442 11.785980 -9.900362 0.000000 -0.000000 0.000000 -2.458048 -8.466815 3.974769 -3.285735 0.355317 1.978302 5.164694 -15.679513 -7.963363 0.000000 -0.000000 0.000000 -0.389116 5.581995 8.914525 -9.393313 3.065591 1.067629 -2.811935 4.745537 1.765148 12.923529 -12.902500 -10.948049 8.938642 3.084706 -7.218895 -15.946847 -7.850349 -0.409448 -44.712133 2.839959 9.311450 -8.869676 -25.857184 24.644948 5.896526 -4.572163 -10.845532 -13.755772 26.890533 -9.708792 -13.596684 35.113521 -32.663675 -36.362402 46.870953 -27.379500 -19.574736 11.668443 4.327855 
-0.013970 1.109451 1.000288 -1.164169 1.340848 85.658014 1.042973 1.552779 2.450412 0.372700 -8.254070 6.599239 2.740733 11.985460 -9.667962 0.000000 -0.000000 0.000000 -2.427875 -8.848813 3.855612 -3.220591 0.404628 2.058772 5.373420 -16.535210 -7.711665 0.000000 -0.000000 0.000000 -0.167241 5.371153 9.138516 -10.003942 3.368179 0.405069 -2.944625 4.674196 2.148233 13.016383 -14.189510 -10.925487 9.644425 3.679739 -6.914544 -15.167449 -7.014468 -0.682736 -44.817909 2.327588 9.887959 -9.307068 -27.890116 25.628882 5.902600 -4.702820 -11.780658 -15.753869 25.573200 -9.943450 -15.809041 32.102298 -34.683935 -31.407621 40.170085 -25.486202 -19.226336 11.281499 5.045511 
-0.012431 1.109232 1.001420 0.333834 1.499478 85.885248 1.027087 1.218565 2.229024 0.462630 -9.271942 6.257458 2.690362 12.014441 -9.439962 0.000000 -0.000000 0.000000 -2.409470 -9.376303 3.725536 -3.123116 0.208772 2.361546 5.556111 -17.446978 -7.618042 0.000000 -0.000000 0.000000 0.031437 4.956755 9.395217 -10.476413 3.352393 -0.319036 -3.117589 4.479065 2.528741 12.999197 -15.032594 -10.716615 10.233305 4.174392 -6.586285 -14.773505 -5.840466 -0.990348 -44.649926 1.862047 10.428472 -9.869732 -29.625503 26.541443 6.513005 -4.715444 -12.547997 -16.681108 23.801001 -9.833552 -16.727633 29.242075 -35.382137 -26.976685 34.444466 -24.225283 -18.831092 10.489570 5.397684 
-0.011058 1.108169 1.002164 1.892828 1.628542 85.936909 0.934390 0.879737 2.340419 0.729224 -10.372225 5.792847 2.629997 11.938703 -9.255525 0.000000 -0.000000 0.000000 -2.452682 -9.737395 3.892900 -2.989894 -0.088962 2.679377 5.677963 -18.257419 -7.626985 0.000000 -0.000000 0.000000 -0.119559 4.635182 9.303813 -10.591461 3.224250 -0.493346 -3.107109 4.201501 2.844909 12.760279 -15.596814 -10.125073 10.467467 4.488166 -6.534700 -14.646708 -4.675203 -1.059070 -44.621622 1.425057 10.659846 -10.094237 -31.073781 27.065492 7.289525 -4.551025 -13.174139 -16.741055 21.908256 -9.392389 -16.041070 26.894605 -34.965153 -24.482302 30.144162 -23.985204 -18.692583 9.656763 5.271261 
-0.010014 1.107199 1.002566 3.463268 1.756663 86.014517 0.971295 0.517887 2.305906 0.813199 -11.250802 5.518685 2.576312 11.623813 -9.193697 0.000000 -0.000000 0.000000 -2.454208 -10.034656 3.948974 -2.867616 -0.636224 3.147090 5.728449 -18.855933 -7.829296 0.000000 -0.000000 0.000000 -0.685027 4.464491 9.337504 -10.317283 2.913143 -0.761530 -2.948556 3.893696 3.016376 12.661156 -15.141361 -10.035540 10.613191 4.287677 -6.284718 -14.781096 -3.463364 -1.134038 -44.452102 1.124801 10.632653 -10.341935 -32.151371 27.430338 7.809490 -4.350706 -13.745070 -15.460821 19.863151 -8.693313 -14.046878 25.249570 -33.596245 -24.286348 28.203216 -24.983524 -19.316491 8.789191 3.934607 
